<?xml version="1.0" encoding="iso-8859-1"?>
<!-- Uploaded to: SVG Repo, www.svgrepo.com, Generator: SVG Repo Mixer Tools -->
<svg version="1.1" id="Layer_1" xmlns="http://www.w3.org/2000/svg" xmlns:xlink="http://www.w3.org/1999/xlink" 
	 viewBox="0 0 512 512" xml:space="preserve">
<rect x="20.076" y="150.42" style="fill:#FFFFFF;" width="341.508" height="341.508"/>
<path style="fill:#B4BBCC;" d="M361.582,512H20.076c-11.088,0-20.076-8.988-20.076-20.076V150.419
	c0-11.088,8.988-20.076,20.076-20.076h341.505c11.088,0,20.076,8.988,20.076,20.076v341.505
	C381.658,503.012,372.669,512,361.582,512z M40.152,471.848h301.354V170.495H40.152V471.848z"/>
<path style="fill:#7DD2F0;" d="M285.091,250.501c-12.672,0-22.944-10.272-22.944-22.944v-18.474L160.473,310.756l-32.292-32.292
	L98.552,413.236l134.772-29.629l-32.292-32.291l100.814-100.814h-16.756V250.501z"/>
<path style="opacity:0.1;enable-background:new    ;" d="M262.147,227.557v-18.474l-83.981,83.981
	c4.651,20.067,20.409,35.914,40.427,40.691l83.254-83.254h-16.756C272.419,250.501,262.147,240.229,262.147,227.557z"/>
<path style="opacity:0.1;enable-background:new    ;" d="M361.582,130.343H176.747v40.152h164.759v164.759h14.065
	c2.018,0.228,4.029,0.343,6.011,0.343c1.982,0,3.993-0.115,6.011-0.343h14.065V150.419
	C381.658,139.331,372.669,130.343,361.582,130.343z"/>
<rect x="231.24" y="20.076" style="fill:#FFFFFF;" width="260.688" height="260.688"/>
<path style="fill:#C7CFE2;" d="M491.925,0H231.239c-11.088,0-20.076,8.988-20.076,20.076V280.76
	c0,11.088,8.988,20.076,20.076,20.076h126.723c1.176,0.215,2.382,0.343,3.619,0.343s2.444-0.128,3.619-0.343h126.722
	c11.088,0,20.076-8.988,20.076-20.076V20.076C512.001,8.988,503.012,0,491.925,0z M251.315,126.37h90.191v48.097h-90.191
	L251.315,126.37L251.315,126.37z M381.658,126.37h90.191v48.097h-90.191V126.37z M471.849,86.218h-90.191V40.152h90.191V86.218z
	 M341.506,40.152v46.067h-90.191V40.152H341.506z M251.315,214.619h90.191v46.067h-90.191L251.315,214.619L251.315,214.619z
	 M381.658,260.685v-46.067h90.191v46.067H381.658z"/>
</svg>