<?xml version="1.0" encoding="iso-8859-1"?>
<!-- Uploaded to: SVG Repo, www.svgrepo.com, Generator: SVG Repo Mixer Tools -->
<svg version="1.1" id="Layer_1" xmlns="http://www.w3.org/2000/svg" xmlns:xlink="http://www.w3.org/1999/xlink" 
	 viewBox="0 0 512 512" xml:space="preserve">
<circle style="fill:#FFD15D;" cx="256" cy="256" r="256"/>
<path style="fill:#F9B54C;" d="M511.702,243.634L315.475,47.407L226.12,303.695l-46.957,141.631l65.965,66.431
	c69.091,2.919,139.138-21.985,191.891-74.738C490.153,383.886,515.046,313.21,511.702,243.634z"/>
<path style="fill:#324A5E;" d="M310.16,455.111H201.842c-17.218,0-31.175-13.957-31.175-31.173v-250.54
	c0-17.217,13.957-31.173,31.173-31.173h108.318c17.217,0,31.173,13.957,31.173,31.173v250.54
	C341.333,441.154,327.377,455.111,310.16,455.111z"/>
<path style="fill:#2B3B4E;" d="M310.16,142.222H256v312.889h54.158c17.217,0,31.173-13.957,31.173-31.173v-250.54
	C341.333,156.179,327.377,142.222,310.16,142.222z"/>
<rect x="186.182" y="175.838" style="fill:#84DBFF;" width="139.636" height="94.815"/>
<rect x="256" y="175.838" style="fill:#31BAFD;" width="69.818" height="94.815"/>
<g>
	<rect x="186.182" y="293.495" style="fill:#536D7F;" width="28.444" height="28.444"/>
	<rect x="223.246" y="293.495" style="fill:#536D7F;" width="28.444" height="28.444"/>
	<rect x="260.31" y="293.495" style="fill:#536D7F;" width="28.444" height="28.444"/>
	<rect x="297.374" y="293.495" style="fill:#536D7F;" width="28.444" height="28.444"/>
	<rect x="186.182" y="331.421" style="fill:#536D7F;" width="28.444" height="28.444"/>
	<rect x="223.246" y="331.421" style="fill:#536D7F;" width="28.444" height="28.444"/>
	<rect x="260.31" y="331.421" style="fill:#536D7F;" width="28.444" height="28.444"/>
	<rect x="297.374" y="331.421" style="fill:#536D7F;" width="28.444" height="28.444"/>
	<rect x="186.182" y="369.347" style="fill:#536D7F;" width="28.444" height="28.444"/>
	<rect x="223.246" y="369.347" style="fill:#536D7F;" width="28.444" height="28.444"/>
	<rect x="260.31" y="369.347" style="fill:#536D7F;" width="28.444" height="28.444"/>
	<rect x="297.374" y="369.347" style="fill:#536D7F;" width="28.444" height="28.444"/>
	<rect x="186.182" y="407.273" style="fill:#536D7F;" width="28.444" height="28.444"/>
	<rect x="223.246" y="407.273" style="fill:#536D7F;" width="28.444" height="28.444"/>
	<rect x="260.31" y="407.273" style="fill:#536D7F;" width="28.444" height="28.444"/>
	<rect x="297.374" y="407.273" style="fill:#536D7F;" width="28.444" height="28.444"/>
</g>
<rect x="196.525" y="47.407" style="fill:#FFFFFF;" width="118.949" height="113.778"/>
<rect x="256" y="47.407" style="fill:#E6F3FF;" width="59.475" height="113.778"/>
</svg>